# xmcd CD database file
#
# Track frame offsets:
#	150
#	25472
#	60255
#	88357
#	126632
#	156500
#	210802
#	242100
#	275050
#
# Disc length: 4303 seconds
#
# Revision: 0
# Processed by: cddbd v1.5.2PL0 Copyright (c) Steve Scherf et al.
# Submitted via: CDex 1.70beta2
#
DISCID=8410cd09
DTITLE=Norman Simmons - The Art Of Norman Simmons
DYEAR=2000
DGENRE=Jazz
TTITLE0=I'm Your Boogie Man
TTITLE1=Joe
TTITLE2=There Are Such Things
TTITLE3=My Silent Love
TTITLE4=Stiffed
TTITLE5=Harlem Nocturne
TTITLE6=6 Am
TTITLE7=The Hour Of Parting
TTITLE8=Medley: I'm Getting Sentimental Over You/ Roscoe Franbro
EXTD=YEAR: 2000
EXTT0=
EXTT1=
EXTT2=
EXTT3=
EXTT4=
EXTT5=
EXTT6=
EXTT7=
EXTT8=
PLAYORDER=
